<svg id="Capa_1" enable-background="new 0 0 512 512" height="512" viewBox="0 0 512 512" width="512" xmlns="http://www.w3.org/2000/svg"><g><path fill="#fff" d="m406 0h-300c-24.813 0-45 20.187-45 45v422c0 24.813 20.187 45 45 45h300c24.813 0 45-20.187 45-45v-422c0-24.813-20.187-45-45-45zm-170.729 482-51.019-102.038 26.748-26.749v38.787h30v-167c0-8.271 6.729-15 15-15s15 6.729 15 15v100.028l85.662 57.108-49.933 99.864zm185.729-15c0 8.271-6.729 15-15 15h-65.729l55.068-110.135-94.339-62.893v-83.972c0-24.813-20.187-45-45-45s-45 20.187-45 45v85.787l-63.251 63.251 53.98 107.962h-95.729c-8.271 0-15-6.729-15-15v-422c0-8.271 6.729-15 15-15h300c8.271 0 15 6.729 15 15z"/><path fill="#fff" d="m139.328 108.327 21.213 21.213c52.637-52.636 138.282-52.636 190.919 0l21.213-21.213c-64.334-64.333-169.012-64.333-233.345 0z"/><path fill="#fff" d="m181.754 150.754 21.213 21.213c29.243-29.242 76.823-29.242 106.066 0l21.213-21.213c-40.939-40.939-107.553-40.939-148.492 0z"/></g></svg>