<svg xmlns="http://www.w3.org/2000/svg" width="16.5" height="16.5" viewBox="0 0 16.5 16.5">
    <path id="Icon_awesome-layer-group" data-name="Icon awesome-layer-group"
          d="M.4,4.77,7.907,8.175a.825.825,0,0,0,.686,0L16.1,4.77a.72.72,0,0,0,0-1.29L8.593.074a.825.825,0,0,0-.686,0L.4,3.48a.72.72,0,0,0,0,1.29ZM16.1,7.615l-1.872-.849L9.019,9.128a1.858,1.858,0,0,1-1.538,0L2.272,6.766.4,7.615A.719.719,0,0,0,.4,8.9l7.507,3.4a.828.828,0,0,0,.686,0L16.1,8.9a.719.719,0,0,0,0-1.289Zm0,4.119-1.865-.845L9.019,13.253a1.858,1.858,0,0,1-1.538,0L2.265,10.888.4,11.733a.719.719,0,0,0,0,1.289l7.507,3.4a.828.828,0,0,0,.686,0l7.507-3.4a.719.719,0,0,0,0-1.289Z"
          transform="translate(0 0)" fill="#c7ac31"/>
</svg>
