<svg xmlns="http://www.w3.org/2000/svg" width="216.213" height="215.212" viewBox="0 0 216.213 215.212">
    <g id="Group_1182" data-name="Group 1182" transform="translate(1.464 1.313)" opacity="0.2">
        <g id="Group_1019" data-name="Group 1019" transform="translate(0 -0.001)">
            <path id="Polygon_1" data-name="Polygon 1" d="M37.272,52.8,0,0,74.544.1Z"
                  transform="translate(75.738 53.483) rotate(-179.475)" fill="none" stroke="#ddc03b"
                  stroke-width="1.5"/>
            <path id="Polygon_2" data-name="Polygon 2" d="M39.914,0,79.829,49.259H0Z"
                  transform="matrix(0.008, -1, 1, 0.008, 47.375, 200.455)" fill="none" stroke="#ddc03b"
                  stroke-linejoin="round" stroke-width="1.5"/>
            <path id="Polygon_3" data-name="Polygon 3" d="M37.27,0,74.54,52.754H0Z"
                  transform="translate(1.576 77.591) rotate(1.471)" fill="none" stroke="#ddc03b" stroke-width="1.5"/>
            <path id="Polygon_2-2" data-name="Polygon 2" d="M37.273,52.813,0,0,74.546.127Z"
                  transform="translate(2.06 32.163) rotate(0.658)" fill="none" stroke="#ddc03b" stroke-width="1.5"/>
            <path id="Polygon_3-2" data-name="Polygon 3" d="M39.912,0,79.824,49.261H0Z"
                  transform="translate(213.497 121.699) rotate(89.957)" fill="none" stroke="#ddc03b"
                  stroke-width="1.5"/>
            <path id="Polygon_2-3" data-name="Polygon 2" d="M37.272,52.814,0,0,74.544.127Z"
                  transform="translate(0 114.914) rotate(-1.146)" fill="none" stroke="#ddc03b" stroke-width="1.5"/>
            <path id="Polygon_3-3" data-name="Polygon 3" d="M37.274,0,74.548,52.748H0Z"
                  transform="translate(1.162 160.393) rotate(-0.332)" fill="none" stroke="#ddc03b" stroke-width="1.5"/>
            <path id="Polygon_2-4" data-name="Polygon 2" d="M39.933,0,79.866,49.257H0Z"
                  transform="translate(129.574 201.02) rotate(-89.692)" fill="none" stroke="#ddc03b"
                  stroke-width="1.5"/>
            <path id="Polygon_3-4" data-name="Polygon 3" d="M39.912,0,79.824,49.262H0Z"
                  transform="translate(131.002 121.269) rotate(91.081)" fill="none" stroke="#ddc03b"
                  stroke-width="1.5"/>
        </g>
    </g>
</svg>
